<?xml version="1.0" encoding="iso-8859-1"?>
<svg xmlns="http://www.w3.org/2000/svg" xmlns:xlink="http://www.w3.org/1999/xlink" version="1.1" viewBox="0 0 227.085 227.085" enable-background="new 0 0 227.085 227.085" width="512px" height="512px">
  <g>
    <path d="m218.385,9.135c-5.22,0-8.701,3.48-8.701,8.701v104.407c0,13.921-12.181,26.102-26.102,26.102h-153.13l36.543-36.543c3.48-3.48 3.48-8.701 0-12.181-3.48-3.48-8.701-3.48-12.181,0l-52.204,52.204c-3.48,3.48-3.48,8.701 4.44089e-16,12.181l52.204,52.204c1.74,1.74 5.22,1.74 6.96,1.74s5.22,0 5.22-3.48c3.48-3.48 3.48-8.701 0-12.181l-36.543-36.543h153.13c24.362,0 43.503-19.141 43.503-43.503v-104.408c0.002-5.22-3.478-8.7-8.699-8.7z" fill="#ffab03"/>
  </g>
</svg>
